<svg xmlns="http://www.w3.org/2000/svg" viewBox="0 0 32 32" width="32" height="32">
  <defs>
    <linearGradient id="tile" x1="0" y1="0" x2="0" y2="1">
      <stop offset="0" stop-color="#141414"/>
      <stop offset="1" stop-color="#0a0a0a"/>
    </linearGradient>
    <linearGradient id="face" x1="0" y1="0" x2="0" y2="1">
      <stop offset="0" stop-color="#ffffff"/>
      <stop offset="1" stop-color="#cfcfcf"/>
    </linearGradient>
  </defs>
  <rect x="0" y="0" width="32" height="32" rx="7" fill="url(#tile)"/>
  <rect x="0.5" y="0.5" width="31" height="31" rx="6.5" fill="none" stroke="#262626" stroke-width="1"/>
  <g>
    <rect x="6.20" y="4.00" width="4.4" height="4.4" fill="#525252"/><rect x="10.60" y="4.00" width="4.4" height="4.4" fill="#525252"/><rect x="15.00" y="4.00" width="4.4" height="4.4" fill="#525252"/><rect x="19.40" y="4.00" width="4.4" height="4.4" fill="#525252"/><rect x="6.20" y="8.40" width="4.4" height="4.4" fill="#525252"/><rect x="19.40" y="8.40" width="4.4" height="4.4" fill="#525252"/><rect x="6.20" y="12.80" width="4.4" height="4.4" fill="#525252"/><rect x="10.60" y="12.80" width="4.4" height="4.4" fill="#525252"/><rect x="15.00" y="12.80" width="4.4" height="4.4" fill="#525252"/><rect x="19.40" y="12.80" width="4.4" height="4.4" fill="#525252"/><rect x="6.20" y="17.20" width="4.4" height="4.4" fill="#525252"/><rect x="15.00" y="17.20" width="4.4" height="4.4" fill="#525252"/><rect x="6.20" y="21.60" width="4.4" height="4.4" fill="#525252"/><rect x="19.40" y="21.60" width="4.4" height="4.4" fill="#525252"/><rect x="6.20" y="26.00" width="4.4" height="4.4" fill="#525252"/><rect x="23.80" y="26.00" width="4.4" height="4.4" fill="#525252"/>
    <rect x="5.00" y="2.80" width="4.4" height="4.4" fill="url(#face)"/><rect x="9.40" y="2.80" width="4.4" height="4.4" fill="url(#face)"/><rect x="13.80" y="2.80" width="4.4" height="4.4" fill="url(#face)"/><rect x="18.20" y="2.80" width="4.4" height="4.4" fill="url(#face)"/><rect x="5.00" y="7.20" width="4.4" height="4.4" fill="url(#face)"/><rect x="18.20" y="7.20" width="4.4" height="4.4" fill="url(#face)"/><rect x="5.00" y="11.60" width="4.4" height="4.4" fill="url(#face)"/><rect x="9.40" y="11.60" width="4.4" height="4.4" fill="url(#face)"/><rect x="13.80" y="11.60" width="4.4" height="4.4" fill="url(#face)"/><rect x="18.20" y="11.60" width="4.4" height="4.4" fill="url(#face)"/><rect x="5.00" y="16.00" width="4.4" height="4.4" fill="url(#face)"/><rect x="13.80" y="16.00" width="4.4" height="4.4" fill="url(#face)"/><rect x="5.00" y="20.40" width="4.4" height="4.4" fill="url(#face)"/><rect x="18.20" y="20.40" width="4.4" height="4.4" fill="url(#face)"/><rect x="5.00" y="24.80" width="4.4" height="4.4" fill="url(#face)"/><rect x="22.60" y="24.80" width="4.4" height="4.4" fill="url(#face)"/>
  </g>
</svg>
